<?xml version="1.0" encoding="UTF-8"?>
<!DOCTYPE svg PUBLIC "-//W3C//DTD SVG 1.1//EN" "http://www.w3.org/Graphics/SVG/1.1/DTD/svg11.dtd">
<!-- Creator: CorelDRAW X8 -->
<svg xmlns="http://www.w3.org/2000/svg" xml:space="preserve" width="250mm" height="250mm" version="1.1" style="shape-rendering:geometricPrecision; text-rendering:geometricPrecision; image-rendering:optimizeQuality; fill-rule:evenodd; clip-rule:evenodd"
viewBox="0 0 25000 25000"
 xmlns:xlink="http://www.w3.org/1999/xlink">
 <defs>
  <style type="text/css">
   <![CDATA[
    .fil3 {fill:#2890E5}
    .fil2 {fill:#3D1B45}
    .fil4 {fill:#E57128}
    .fil0 {fill:#E5A228}
    .fil1 {fill:white}
   ]]>
  </style>
 </defs>
 <g id="Capa_x0020_1">
  <metadata id="CorelCorpID_0Corel-Layer"/>
  <g id="_643263200">
   <path class="fil0" d="M1975 23723c1432,416 1973,546 3194,781 228,-63 3084,-605 3194,-781 763,-8354 -37,-50 725,-8404l-7838 0c725,8404 0,0 725,8404z"/>
   <path class="fil1" d="M3351 16692l-315 3746 3366 0 0 1312 -1232 323 -1061 -323 -83 -794 -990 0c0,326 0,1296 0,1597l2133 584c379,-2 1693,-453 2154,-584 316,-3104 0,0 316,-3104 -720,0 -2863,-1 -3475,1l117 -1666 1776 0 345 1111 1237 0c-652,-2203 0,0 -652,-2203 -273,0 -3121,0 -3636,0z"/>
  </g>
  <g id="_643266208">
   <path class="fil2" d="M24280 17090c6,-1333 6,-1333 -1949,-1333 -676,0 -3436,0 -4180,0 -2041,0 -2098,0 -2098,1333 0,806 0,5052 0,5202 0,1774 0,1774 2098,1774 1314,0 2924,0 4180,0 1955,0 1955,0 1955,-1774 0,-1283 0,-3216 -6,-5202z"/>
   <path class="fil1" d="M19395 21799l0 -1404c545,-15 1524,16 1483,613 0,880 -812,793 -1483,791zm0 -2597l0 -1336c840,13 1524,45 1486,610 38,685 -564,640 -1486,726zm-1589 3579c289,0 2615,130 2863,130 2159,0 1883,-2636 1000,-3250 883,-464 1159,-2750 -1000,-2750 -846,0 -1980,99 -2863,99l0 5771z"/>
  </g>
  <g id="_605950000">
   <path class="fil3" d="M16975 8723c1432,416 1973,546 3194,781 228,-63 3084,-605 3194,-781 763,-8354 -37,-51 725,-8404l-7838 0c725,8404 0,0 725,8404z"/>
   <path class="fil1" d="M18927 5076l2446 0c-62,1352 0,0 -62,1352l-1131 357 -1148 -326 -61 -814 -1072 0 151 1614 1967 546 163 32 2092 -579 485 -5272 -5176 0 79 1021c501,0 3655,0 3944,0l-98 1071 -2579 -9 0 1007z"/>
  </g>
  <g id="_605949136">
   <path class="fil4" d="M1975 8723c1432,416 1973,546 3194,781 228,-63 3084,-605 3194,-781 763,-8354 -37,-50 725,-8404l-7838 0c725,8404 0,0 725,8404z"/>
   <path class="fil1" d="M2711 2031l0 3090 3565 0 -72 1305 -1068 324 -1230 -296c-33,-150 -278,-831 -278,-831 -94,0 -341,0 -917,0 253,1617 0,0 253,1617l2205 552c295,-77 1824,-490 2205,-598 64,-127 15,-2595 52,-2959l-3798 0c0,-378 0,-786 0,-1112l3899 0 50 -546 51 -546 -1230 0 -1229 0 -2458 0z"/>
  </g>
 </g>
</svg>
